<svg width="2195" height="459" viewBox="0 0 2195 459" fill="none" xmlns="http://www.w3.org/2000/svg">
<path d="M145.314 208.613L251.103 111.837C251.801 111.199 252.832 112.094 252.297 112.875L196.823 193.881C196.461 194.41 196.839 195.127 197.48 195.127H254.508C255.182 195.127 255.551 195.913 255.121 196.432L178.333 289.107C177.778 289.777 176.705 289.2 176.958 288.368L200.446 211.024C200.601 210.513 200.218 209.997 199.684 209.997H145.851C145.125 209.997 144.778 209.103 145.314 208.613Z" fill="#65B500"/>
<path d="M400 100V12.6373C400 5.65789 394.342 0 387.363 0H300H200L99.866 100H200H300V200V300L400 200V100Z" fill="#1A181B"/>
<path d="M400 387.363V300H300H200H100L200 400H300H387.363C394.342 400 400 394.342 400 387.363Z" fill="#1A181B"/>
<path d="M0 12.6373V100V200V300V387.363C0 394.342 5.65789 400 12.6373 400H100V300V200.5L99.9993 200L99.866 100V0H12.6373C5.65789 0 0 5.65789 0 12.6373Z" fill="#1A181B"/>
<path d="M593.811 35.614H577.559V92.8406H593.811C596.329 92.8406 597.016 91.925 597.016 89.407V39.0476C597.016 36.9875 596.1 35.614 593.811 35.614ZM629.749 28.0601V104.973C629.749 112.298 624.484 119.623 614.87 119.623L632.267 172.5H597.931L581.908 119.623H577.559V172.5H544.367V6.54294H607.316C622.882 6.54294 629.749 15.0125 629.749 28.0601ZM643.843 172.5V6.54294H708.395L714.117 37.4453H677.95V76.8172H705.419V105.43H677.95V141.598H712.744L707.021 172.5H643.843ZM725.659 172.5V6.54294H759.766V141.598H793.187L787.464 172.5H725.659ZM803.452 172.5V6.54294H836.643V172.5H803.452ZM904.875 151.898H882.213L879.237 172.5H845.817L875.804 6.54294H911.284L941.271 172.5H907.851L904.875 151.898ZM893.658 66.7453L885.876 125.574H901.212L893.658 66.7453ZM999.991 35.614H983.281V79.1062H998.846C1001.14 79.1062 1002.97 77.7328 1002.97 74.757V38.8187C1002.97 36.7586 1002.28 35.614 999.991 35.614ZM1003.42 139.995V109.093C1003.42 105.43 1001.36 104.286 998.388 104.286H983.281V143.429H999.991C1002.74 143.429 1003.42 142.513 1003.42 139.995ZM1034.78 26.6867V72.239C1034.78 80.4797 1032.04 86.889 1023.34 89.1781C1032.5 89.6359 1036.39 96.5031 1036.39 103.828V146.862C1036.39 165.175 1029.52 172.5 1010.52 172.5H950.318V6.54294H1015.1C1028.15 6.54294 1034.78 14.5547 1034.78 26.6867ZM1050.02 172.5V6.54294H1084.12V141.598H1117.54L1111.82 172.5H1050.02ZM1127.81 172.5V6.54294H1192.36L1198.08 37.4453H1161.92V76.8172H1189.39V105.43H1161.92V141.598H1196.71L1190.99 172.5H1127.81ZM1287.91 35.614H1271.2V100.852H1287.68C1290.43 100.852 1290.89 99.9367 1290.89 97.4187V38.8187C1290.89 36.7586 1290.2 35.614 1287.91 35.614ZM1238.24 6.54294H1303.48C1316.53 6.54294 1323.16 14.5547 1323.16 26.6867V106.117C1323.16 118.707 1318.13 128.321 1299.59 128.321H1271.2V172.5H1238.24V6.54294ZM1385.59 35.614H1372.55C1370.26 35.614 1369.57 36.7586 1369.57 38.8187V139.995C1369.57 142.513 1370.03 143.429 1372.78 143.429H1385.37C1388.11 143.429 1388.57 142.513 1388.57 139.995V38.8187C1388.57 36.7586 1387.88 35.614 1385.59 35.614ZM1422.22 28.0601V148.923C1422.22 161.512 1416.95 172.5 1398.41 172.5H1359.96C1341.42 172.5 1336.15 161.512 1336.15 148.923V28.0601C1336.15 15.0125 1343.02 6.54294 1358.58 6.54294H1399.79C1415.35 6.54294 1422.22 15.0125 1422.22 28.0601ZM1526.5 103.141L1537.26 6.54294H1571.13L1545.04 172.5H1514.82L1501.09 85.9734L1487.58 172.5H1457.37L1431.27 6.54294H1465.15L1475.68 103.141L1489.19 6.54294H1513.22L1526.5 103.141ZM1580.26 172.5V6.54294H1644.81L1650.53 37.4453H1614.36V76.8172H1641.83V105.43H1614.36V141.598H1649.16L1643.44 172.5H1580.26ZM1711.52 35.614H1695.27V92.8406H1711.52C1714.04 92.8406 1714.72 91.925 1714.72 89.407V39.0476C1714.72 36.9875 1713.81 35.614 1711.52 35.614ZM1747.46 28.0601V104.973C1747.46 112.298 1742.19 119.623 1732.58 119.623L1749.97 172.5H1715.64L1699.61 119.623H1695.27V172.5H1662.07V6.54294H1725.02C1740.59 6.54294 1747.46 15.0125 1747.46 28.0601ZM1810.32 172.5H1769.34L1763.39 141.598H1799.1C1802.08 141.598 1802.99 140.682 1802.99 138.164V107.948C1802.99 103.37 1801.39 103.141 1796.81 103.141H1779.64C1769.8 103.141 1761.1 100.852 1761.1 84.3711V28.0601C1761.1 15.0125 1767.97 6.54294 1783.54 6.54294H1829.32L1835.04 37.4453H1797.5C1794.75 37.4453 1793.38 38.5898 1793.38 41.1078V71.3234C1793.38 74.757 1794.98 75.6726 1798.41 75.6726H1819.24C1829.77 75.6726 1835.73 80.2508 1835.73 92.6117V147.32C1835.73 165.633 1829.32 172.5 1810.32 172.5ZM1932.49 151.898H1909.83L1906.86 172.5H1873.44L1903.42 6.54294H1938.9L1968.89 172.5H1935.47L1932.49 151.898ZM1921.28 66.7453L1913.5 125.574H1928.83L1921.28 66.7453ZM1977.94 172.5V6.54294H2009.53L2026.47 73.1547V6.54294H2060.57V172.5H2026.47L2008.61 103.141V172.5H1977.94ZM2123.04 35.614H2107.25V143.429H2122.81C2125.56 143.429 2126.02 142.513 2126.02 139.995V38.8187C2126.02 36.7586 2125.33 35.614 2123.04 35.614ZM2158.98 26.6867V146.862C2158.98 165.175 2152.11 172.5 2133.11 172.5H2074.28V6.54294H2139.29C2152.34 6.54294 2158.98 14.5547 2158.98 26.6867ZM544.367 401.5V235.543H608.919L614.641 266.445H578.474V305.817H605.943V334.43H578.474V370.598H613.268L607.545 401.5H544.367ZM626.183 401.5V235.543H660.29V370.598H693.711L687.988 401.5H626.183ZM703.976 401.5V235.543H768.527L774.25 266.445H738.083V305.817H765.551V334.43H738.083V370.598H772.876L767.154 401.5H703.976ZM848.741 401.5H811.658C792.659 401.5 785.792 394.175 785.792 375.862V255.916C785.792 242.868 794.261 235.543 805.249 235.543H848.97L854.693 266.445H822.875C820.586 266.445 819.899 267.59 819.899 269.65V367.393C819.899 369.453 820.586 370.598 822.875 370.598H854.693L848.741 401.5ZM870.163 235.543H931.51L939.751 266.445H917.547V401.5H883.669V266.445H861.465L870.163 235.543ZM998.421 264.614H982.168V321.841H998.421C1000.94 321.841 1001.63 320.925 1001.63 318.407V268.048C1001.63 265.987 1000.71 264.614 998.421 264.614ZM1034.36 257.06V333.973C1034.36 341.298 1029.09 348.623 1019.48 348.623L1036.88 401.5H1002.54L986.518 348.623H982.168V401.5H948.977V235.543H1011.93C1027.49 235.543 1034.36 244.012 1034.36 257.06ZM1048.45 401.5V235.543H1081.64V401.5H1048.45ZM1158.35 401.5H1121.26C1102.26 401.5 1095.4 394.175 1095.4 375.862V255.916C1095.4 242.868 1103.87 235.543 1114.85 235.543H1158.57L1164.3 266.445H1132.48C1130.19 266.445 1129.5 267.59 1129.5 269.65V367.393C1129.5 369.453 1130.19 370.598 1132.48 370.598H1164.3L1158.35 401.5ZM1230.13 380.898H1207.47L1204.49 401.5H1171.07L1201.06 235.543H1236.54L1266.52 401.5H1233.1L1230.13 380.898ZM1218.91 295.745L1211.13 354.574H1226.46L1218.91 295.745ZM1275.57 401.5V235.543H1309.68V370.598H1343.1L1337.38 401.5H1275.57ZM1398.11 401.5H1357.13L1351.18 370.598H1386.89C1389.87 370.598 1390.78 369.682 1390.78 367.164V336.948C1390.78 332.37 1389.18 332.141 1384.6 332.141H1367.43C1357.59 332.141 1348.89 329.852 1348.89 313.371V257.06C1348.89 244.012 1355.76 235.543 1371.33 235.543H1417.11L1422.83 266.445H1385.29C1382.54 266.445 1381.17 267.59 1381.17 270.108V300.323C1381.17 303.757 1382.77 304.673 1386.2 304.673H1407.03C1417.56 304.673 1423.52 309.251 1423.52 321.612V376.32C1423.52 394.633 1417.11 401.5 1398.11 401.5Z" fill="black"/>
</svg>
