<svg xmlns="http://www.w3.org/2000/svg" viewBox="0 0 381 132"><g fill="none" stroke-width="2"><path stroke="#99a1be" d="M381 16.26 0 16.25M381 17.79v17.55M381 41.56l-.2 73.14q-.01 1.05-1.06 1.05H.76q-.5 0-.5-.49L0 18.94" vector-effect="non-scaling-stroke"/><path stroke="#99a1be" d="M377.82 19.72a.53.53 0 0 0-.53-.53H3.57a.53.53 0 0 0-.53.53v92.5a.53.53 0 0 0 .53.53h373.72a.53.53 0 0 0 .53-.53v-92.5" vector-effect="non-scaling-stroke"/><path stroke="#97a5c6" d="M372.31 23.1a.35.35 0 0 0-.35-.35H8.94a.35.35 0 0 0-.35.35v85.8a.35.35 0 0 0 .35.35h363.02a.35.35 0 0 0 .35-.35V23.1" vector-effect="non-scaling-stroke"/><path stroke="#97a5c6" d="M250.65 33.84c-20.67 9.11-20.45 60.19 2.67 65.33 33 7.32 35.41-50.33 16.66-63.47-5.55-3.89-13.13-4.6-19.33-1.86M337.12 48.18c-1.47 12.51 5.83 18.13 13.7 25.83 10.88 10.63-3.03 17.6-12.25 9.54a.34.34 0 0 0-.56.25l-.04 12.45a.89.88-75.9 0 0 .46.78c12.18 6.72 26.74 1.63 29.21-12.92 2.24-13.17-6.09-17.95-14.35-26.38-4.18-4.28-5.12-12.16 1.81-13.37 2.94-.52 6.38 1.04 9.18 2.35a.47.47 0 0 0 .67-.41l.18-9.95q0-.5-.41-.78c-11.67-7.86-25.94-1.55-27.6 12.61M31.64 86.21a.65.65 0 0 1-.65-.65l.03-51.91a.65.65 0 0 0-.65-.65H18.9a.65.65 0 0 0-.65.65v64.76a.65.65 0 0 0 .65.65l26.45-.19a.65.65 0 0 0 .65-.65l-.01-11.3a.65.65 0 0 0-.65-.65l-13.7-.06M76.56 86.44c-4.12 3.06-11.15 2.65-12.2-3.53q-.63-3.74-.63-5.67.07-21.82 0-43.72 0-.52-.52-.52H51.29q-.54 0-.54.54-.06 23.77.1 47.51c.09 11.54 6.34 17.64 17.43 18.74q6.59.64 11.96-1.29c9.87-3.54 11.25-11.72 11.26-21.1q.02-21.94-.01-43.89 0-.51-.5-.51H79.01q-.51 0-.51.51.03 22.09-.09 44.18-.02 4.03-1.26 7.92-.16.51-.59.83M126.55 76.75c-.69-13.19-2.71-25.28-5.25-43.1q-.09-.65-.75-.65h-15.41q-.61 0-.67.61L98.2 98.32q-.06.68.62.68h11.69q.59 0 .63-.58l3.25-50.9q.04-.73.15 0l7.54 50.91a.67.66-4 0 0 .66.57h8.25q.57 0 .66-.56l8.01-50.45q.25-1.53.31.02l2.15 50.07a.96.96 0 0 0 .96.92h11.71q.54 0 .5-.54l-5.4-64.91q-.05-.59-.65-.59l-15.43.14q-.41 0-.49.4-4.12 21.5-6.48 43.26a.15.15 0 0 1-.29-.01M176.24 33.5a.5.5 0 0 0-.5-.5H163.5a.5.5 0 0 0-.5.5v65a.5.5 0 0 0 .5.5h12.24a.5.5 0 0 0 .5-.5v-65M198.83 52.74c.77 3.54 1.6 6.97 2.9 10.42q6.73 17.74 13.72 35.45.15.39.58.39h10.93a.53.53 0 0 0 .53-.53l.21-64.72q0-.75-.73-.75h-10.66q-.58 0-.61.58-1.05 23.13 1.37 46.14.01.06-.01 0-7.6-23.28-16.72-46.29-.17-.43-.63-.43H187.8q-.65 0-.65.64l.1 64.86q0 .5.5.5h10.94q.69 0 .68-.69l-.65-45.56q-.01-.54.11-.01M325.34 94.34c3.76-4.18 4.42-8.35 4.51-14.43q.34-23.18.08-46.43-.01-.48-.49-.48h-11.69q-.65 0-.64.66.56 29.7-.26 48.33c-.15 3.47-2.61 5.78-6.07 6.22-7.65.98-8.3-5.05-8.38-11.17q-.3-21.73-.1-43.49 0-.55-.55-.55h-11.96q-.41 0-.42.42-.47 38.88.09 50.06.38 7.54 5.54 11.86c7.13 5.99 23.65 6.43 30.34-1" vector-effect="non-scaling-stroke"/><path stroke="#97a5c6" d="M254.19 85.81c5.86 4.58 11.79-1.26 13.04-7.07 1.47-6.8 2.71-24.69-2.32-30.68-5.24-6.22-12.83-2.74-14.59 4.25-2.14 8.52-3.37 27.85 3.87 33.5" vector-effect="non-scaling-stroke"/></g><path fill="#fff" d="M0 0h381v16.26L0 16.25V0Z"/><path fill="#33437d" d="M381 16.26v25.3l-.2 73.14q-.01 1.05-1.06 1.05H.76q-.5 0-.5-.49L0 18.94v-2.69l381 .01Zm-3.18 3.46a.53.53 0 0 0-.53-.53H3.57a.53.53 0 0 0-.53.53v92.5a.53.53 0 0 0 .53.53h373.72a.53.53 0 0 0 .53-.53v-92.5Z"/><path fill="#fff" d="M381 17.79v17.55-17.55ZM0 18.94l.26 96.32q0 .49.5.49h378.98q1.05 0 1.06-1.05l.2-73.14V132H0V18.94Z"/><path fill="#fff" d="M377.82 112.22a.53.53 0 0 1-.53.53H3.57a.53.53 0 0 1-.53-.53v-92.5a.53.53 0 0 1 .53-.53h373.72a.53.53 0 0 1 .53.53v92.5Zm-5.51-89.12a.35.35 0 0 0-.35-.35H8.94a.35.35 0 0 0-.35.35v85.8a.35.35 0 0 0 .35.35h363.02a.35.35 0 0 0 .35-.35V23.1Z"/><path fill="#2f4a8c" d="M372.31 108.9a.35.35 0 0 1-.35.35H8.94a.35.35 0 0 1-.35-.35V23.1a.35.35 0 0 1 .35-.35h363.02a.35.35 0 0 1 .35.35v85.8ZM250.65 33.84c-20.67 9.11-20.45 60.19 2.67 65.33 33 7.32 35.41-50.33 16.66-63.47-5.55-3.89-13.13-4.6-19.33-1.86Zm86.47 14.34c-1.47 12.51 5.83 18.13 13.7 25.83 10.88 10.63-3.03 17.6-12.25 9.54a.34.34 0 0 0-.56.25l-.04 12.45a.89.88-75.9 0 0 .46.78c12.18 6.72 26.74 1.63 29.21-12.92 2.24-13.17-6.09-17.95-14.35-26.38-4.18-4.28-5.12-12.16 1.81-13.37 2.94-.52 6.38 1.04 9.18 2.35a.47.47 0 0 0 .67-.41l.18-9.95q0-.5-.41-.78c-11.67-7.86-25.94-1.55-27.6 12.61ZM31.64 86.21a.65.65 0 0 1-.65-.65l.03-51.91a.65.65 0 0 0-.65-.65H18.9a.65.65 0 0 0-.65.65v64.76a.65.65 0 0 0 .65.65l26.45-.19a.65.65 0 0 0 .65-.65l-.01-11.3a.65.65 0 0 0-.65-.65l-13.7-.06Zm44.92.23c-4.12 3.06-11.15 2.65-12.2-3.53q-.63-3.74-.63-5.67.07-21.82 0-43.72 0-.52-.52-.52H51.29q-.54 0-.54.54-.06 23.77.1 47.51c.09 11.54 6.34 17.64 17.43 18.74q6.59.64 11.96-1.29c9.87-3.54 11.25-11.72 11.26-21.1q.02-21.94-.01-43.89 0-.51-.5-.51H79.01q-.51 0-.51.51.03 22.09-.09 44.18-.02 4.03-1.26 7.92-.16.51-.59.83Zm49.99-9.69c-.69-13.19-2.71-25.28-5.25-43.1q-.09-.65-.75-.65h-15.41q-.61 0-.67.61L98.2 98.32q-.06.68.62.68h11.69q.59 0 .63-.58l3.25-50.9q.04-.73.15 0l7.54 50.91a.67.66-4 0 0 .66.57h8.25q.57 0 .66-.56l8.01-50.45q.25-1.53.31.02l2.15 50.07a.96.96 0 0 0 .96.92h11.71q.54 0 .5-.54l-5.4-64.91q-.05-.59-.65-.59l-15.43.14q-.41 0-.49.4-4.12 21.5-6.48 43.26a.15.15 0 0 1-.29-.01Zm49.69-43.25a.5.5 0 0 0-.5-.5H163.5a.5.5 0 0 0-.5.5v65a.5.5 0 0 0 .5.5h12.24a.5.5 0 0 0 .5-.5v-65Zm22.59 19.24c.77 3.54 1.6 6.97 2.9 10.42q6.73 17.74 13.72 35.45.15.39.58.39h10.93a.53.53 0 0 0 .53-.53l.21-64.72q0-.75-.73-.75h-10.66q-.58 0-.61.58-1.05 23.13 1.37 46.14.01.06-.01 0-7.6-23.28-16.72-46.29-.17-.43-.63-.43H187.8q-.65 0-.65.64l.1 64.86q0 .5.5.5h10.94q.69 0 .68-.69l-.65-45.56q-.01-.54.11-.01Zm126.51 41.6c3.76-4.18 4.42-8.35 4.51-14.43q.34-23.18.08-46.43-.01-.48-.49-.48h-11.69q-.65 0-.64.66.56 29.7-.26 48.33c-.15 3.47-2.61 5.78-6.07 6.22-7.65.98-8.3-5.05-8.38-11.17q-.3-21.73-.1-43.49 0-.55-.55-.55h-11.96q-.41 0-.42.42-.47 38.88.09 50.06.38 7.54 5.54 11.86c7.13 5.99 23.65 6.43 30.34-1Z"/><path fill="#fff" d="M253.32 99.17c-23.12-5.14-23.34-56.22-2.67-65.33 6.2-2.74 13.78-2.03 19.33 1.86 18.75 13.14 16.34 70.79-16.66 63.47Zm.87-13.36c5.86 4.58 11.79-1.26 13.04-7.07 1.47-6.8 2.71-24.69-2.32-30.68-5.24-6.22-12.83-2.74-14.59 4.25-2.14 8.52-3.37 27.85 3.87 33.5ZM337.12 48.18c1.66-14.16 15.93-20.47 27.6-12.61q.41.28.41.78l-.18 9.95a.47.47 0 0 1-.67.41c-2.8-1.31-6.24-2.87-9.18-2.35-6.93 1.21-5.99 9.09-1.81 13.37 8.26 8.43 16.59 13.21 14.35 26.38-2.47 14.55-17.03 19.64-29.21 12.92a.89.88-75.9 0 1-.46-.78l.04-12.45a.34.34 0 0 1 .56-.25c9.22 8.06 23.13 1.09 12.25-9.54-7.87-7.7-15.17-13.32-13.7-25.83ZM31.64 86.21l13.7.06a.65.65 0 0 1 .65.65l.01 11.3a.65.65 0 0 1-.65.65l-26.45.19a.65.65 0 0 1-.65-.65V33.65a.65.65 0 0 1 .65-.65h11.47a.65.65 0 0 1 .65.65l-.03 51.91a.65.65 0 0 0 .65.65ZM64.36 82.91c1.05 6.18 8.08 6.59 12.2 3.53q.43-.32.59-.83 1.24-3.89 1.26-7.92.12-22.09.09-44.18 0-.51.51-.51h11.98q.5 0 .5.51.03 21.95.01 43.89c-.01 9.38-1.39 17.56-11.26 21.1q-5.37 1.93-11.96 1.29c-11.09-1.1-17.34-7.2-17.43-18.74q-.16-23.74-.1-47.51 0-.54.54-.54h11.92q.52 0 .52.52.07 21.9 0 43.72 0 1.93.63 5.67ZM126.84 76.76Q129.2 55 133.32 33.5q.08-.4.49-.4l15.43-.14q.6 0 .65.59l5.4 64.91q.04.54-.5.54h-11.71a.96.96 0 0 1-.96-.92l-2.15-50.07q-.06-1.55-.31-.02l-8.01 50.45q-.09.56-.66.56h-8.25a.67.66-4 0 1-.66-.57l-7.54-50.91q-.11-.73-.15 0l-3.25 50.9q-.04.58-.63.58H98.82q-.68 0-.62-.68l6.27-64.71q.06-.61.67-.61h15.41q.66 0 .75.65c2.54 17.82 4.56 29.91 5.25 43.1a.15.15 0 0 0 .29.01Z"/><rect width="13.24" height="66" x="163" y="33" fill="#fff" rx=".5"/><path fill="#fff" d="m198.72 52.75.65 45.56q.01.69-.68.69h-10.94q-.5 0-.5-.5l-.1-64.86q0-.64.65-.64h11.91q.46 0 .63.43 9.12 23.01 16.72 46.29.02.06.01 0-2.42-23.01-1.37-46.14.03-.58.61-.58h10.66q.73 0 .73.75l-.21 64.72a.53.53 0 0 1-.53.53h-10.93q-.43 0-.58-.39-6.99-17.71-13.72-35.45c-1.3-3.45-2.13-6.88-2.9-10.42q-.12-.53-.11.01ZM325.34 94.34c-6.69 7.43-23.21 6.99-30.34 1q-5.16-4.32-5.54-11.86-.56-11.18-.09-50.06.01-.42.42-.42h11.96q.55 0 .55.55-.2 21.76.1 43.49c.08 6.12.73 12.15 8.38 11.17 3.46-.44 5.92-2.75 6.07-6.22q.82-18.63.26-48.33-.01-.66.64-.66h11.69q.48 0 .49.48.26 23.25-.08 46.43c-.09 6.08-.75 10.25-4.51 14.43Z"/><path fill="#2f4a8c" d="M254.19 85.81c-7.24-5.65-6.01-24.98-3.87-33.5 1.76-6.99 9.35-10.47 14.59-4.25 5.03 5.99 3.79 23.88 2.32 30.68-1.25 5.81-7.18 11.65-13.04 7.07Z"/></svg>