<svg width="1307" height="1307" viewBox="0 0 1307 1307" fill="none" xmlns="http://www.w3.org/2000/svg">
<path d="M474.663 681.427L820.218 365.313C822.499 363.227 825.866 366.151 824.12 368.702L642.915 633.307C641.733 635.033 642.969 637.377 645.06 637.377H831.342C833.544 637.377 834.75 639.942 833.345 641.637L582.518 944.36C580.706 946.546 577.201 944.662 578.026 941.945L654.749 689.303C655.256 687.633 654.006 685.947 652.26 685.947H476.418C474.045 685.947 472.912 683.029 474.663 681.427Z" fill="#65B500"/>
<path d="M1306.59 326.647V41.2792C1306.59 18.4813 1288.11 0 1265.31 0H979.94H653.293L326.209 326.647H653.293H979.94V653.293V979.94L1306.59 653.293V326.647Z" fill="#1A181B"/>
<path d="M1306.59 1265.31V979.94H979.94H653.293H326.647L653.293 1306.59H979.94H1265.31C1288.11 1306.59 1306.59 1288.11 1306.59 1265.31Z" fill="#1A181B"/>
<path d="M0 41.2792V326.647V653.293V979.94V1265.31C0 1288.11 18.4813 1306.59 41.2792 1306.59H326.647V979.94V654.926L326.644 653.293L326.209 326.647V0H41.2792C18.4813 0 0 18.4813 0 41.2792Z" fill="#1A181B"/>
</svg>
